PathFileType	4	(X/Y/Z)	C:\Users\Biomechanik\SynologyDrive\AlexP\Athlete_03\Athlete_3_25_03_31\Walking_06\marker_experimental.trc
DataRate	CameraRate	NumFrames	NumMarkers	Units	OrigDataRate	OrigDataStartFrame	OrigNumFrames
200.000000	200.000000	4	53	mm	200.000000	333	445
Frame#	Time	GLAB			RFHD			LFHD			C7			T6			SPINMOL			SPINM2			SPINM3			T12			BELTOL			BELT2			BELT3			SACROL			SACR2			SACR3			LTHOL			LTH2			LTH3			LSHAOL			LSHA2			LSHA3			LHEE			LTOE			LM5			RTHOL			RTH2			RTH3			RSHAOL			RSHA2			RSHA3			RHEE			RTOE			RM5			STRN			XIPH			LACR			LUAOL			LUA2			LUA3			LLAOL			LLA2			LLA3			LWRR			LWRU			RACR			RUAOL			RUA2			RUA3			RLAOL			RLA2			RLA3			RWRR			RWRU			
		X1	Y1	Z1	X2	Y2	Z2	X3	Y3	Z3	X4	Y4	Z4	X5	Y5	Z5	X6	Y6	Z6	X7	Y7	Z7	X8	Y8	Z8	X9	Y9	Z9	X10	Y10	Z10	X11	Y11	Z11	X12	Y12	Z12	X13	Y13	Z13	X14	Y14	Z14	X15	Y15	Z15	X16	Y16	Z16	X17	Y17	Z17	X18	Y18	Z18	X19	Y19	Z19	X20	Y20	Z20	X21	Y21	Z21	X22	Y22	Z22	X23	Y23	Z23	X24	Y24	Z24	X25	Y25	Z25	X26	Y26	Z26	X27	Y27	Z27	X28	Y28	Z28	X29	Y29	Z29	X30	Y30	Z30	X31	Y31	Z31	X32	Y32	Z32	X33	Y33	Z33	X34	Y34	Z34	X35	Y35	Z35	X36	Y36	Z36	X37	Y37	Z37	X38	Y38	Z38	X39	Y39	Z39	X40	Y40	Z40	X41	Y41	Z41	X42	Y42	Z42	X43	Y43	Z43	X44	Y44	Z44	X45	Y45	Z45	X46	Y46	Z46	X47	Y47	Z47	X48	Y48	Z48	X49	Y49	Z49	X50	Y50	Z50	X51	Y51	Z51	X52	Y52	Z52	X53	Y53	Z53	

334	1.665	1924.96435546875	1532.123291015625	213.0897216796878	1880.776123046875	1573.578369140625	274.5475769042972	1890.366821289062	1560.552612304688	136.8031005859378	1677.277709960938	1407.28271484375	202.1449737548831	1614.498168945312	1238.348999023438	200.1106414794925	1608.22607421875	1197.623901367188	179.49089050293	1599.114379882812	1190.912353515625	228.6842956542972	1611.397705078125	1133.756958007812	196.948669433594	1636.578247070312	1066.566040039062	199.8350982666019	1601.7646484375	1031.71630859375	177.683029174805	1596.26708984375	1031.50146484375	227.8291931152347	1593.458618164062	970.2084960937501	200.3222351074222	1616.23779296875	927.5576782226564	172.9964447021487	1607.4873046875	929.3845214843751	223.7318115234378	1590.393676757812	870.9655151367189	197.4824218750003	1817.11181640625	635.8851318359376	37.24105834960971	1794.05517578125	566.2549438476564	65.90909576416048	1840.270629882812	581.8164062500001	53.46812820434604	1945.749633789062	304.7477416992189	58.02337265014684	1930.7705078125	228.4348297119142	75.84623718261754	1974.771484375	250.1245574951173	65.56954956054724	2008.734619140625	49.96213150024426	154.8907165527347	2215.581298828125	122.3241043090822	145.7105255126957	2184.0146484375	76.67317962646497	54.34559631347696	1600.446533203125	691.7544555664064	389.2763671875003	1633.738647460938	622.0102539062501	404.1698303222659	1592.18701171875	631.2579956054689	378.8955688476565	1460.740234375	372.106170654297	364.2561035156253	1460.38720703125	293.617889404297	359.9534606933597	1424.12255859375	324.6632385253907	346.3960571289065	1306.9267578125	144.1986389160157	231.3266754150393	1485.754760742188	43.76799011230478	230.5267181396487	1438.56396484375	41.24721527099618	337.5466613769534	1842.803588867188	1300.479858398438	212.376861572266	1855.65380859375	1157.832275390625	221.8215942382816	1752.072998046875	1360.616943359375	32.05738449096712	1710.207397460938	1206.634765625	-64.30045318603484	1682.358032226562	1148.059204101562	-78.12290954589812	1732.249877929688	1144.26416015625	-65.2531280517575	1663.932373046875	951.2922973632814	-109.1796417236325	1611.843872070312	895.9085083007814	-85.83427429199189	1653.64599609375	890.6987915039064	-112.5571746826169	1644.666625976562	787.3434448242189	-123.3265533447263	1699.578491210938	770.4877319335939	-68.34062957763641	1748.270751953125	1368.845581054688	373.960357666016	1746.766357421875	1228.092529296875	480.1037597656253	1782.166015625	1173.121459960938	491.2138061523441	1732.655395507812	1168.6650390625	504.8160400390628	1859.198364257812	977.3385009765626	531.4559936523441	1938.478515625	975.2547607421876	537.5154418945316	1907.92529296875	939.6047363281251	520.8645629882816	1990.832153320312	904.4293212890626	509.8604736328128	2015.594360351562	931.9255371093751	437.2927551269535	
335	1.67	1932.446411132812	1531.791625976563	212.1607360839847	1888.1044921875	1573.20751953125	273.5329589843753	1897.944091796875	1560.169311523438	135.814605712891	1684.886596679688	1406.661499023438	200.7938385009769	1622.283447265625	1237.669555664062	198.9838867187503	1616.058715820312	1196.916748046875	178.4337310791018	1606.966674804688	1190.267944335938	227.6457366943362	1619.261352539062	1133.087036132812	195.9739837646487	1644.580078125	1065.931274414062	198.9589691162113	1609.94873046875	1031.02392578125	176.8801269531253	1604.431396484375	1030.769897460938	227.019454956055	1601.709228515625	969.5044555664064	199.4971923828128	1624.221557617188	926.8447875976564	172.3339691162112	1615.499267578125	928.6001586914064	223.0659027099612	1598.682006835938	870.1173095703126	196.7972106933597	1826.12841796875	636.0111083984376	36.8624305725101	1802.7177734375	566.1500854492189	64.74532318115267	1849.093994140625	581.8554077148439	52.96775054931675	1952.227294921875	304.0328979492189	58.12530517578161	1936.278564453125	227.9288482666017	75.85120391845739	1980.563598632812	249.0867004394532	65.85334014892615	2011.06201171875	49.5292549133302	155.5737457275394	2219.1337890625	117.2191390991212	146.4597930908207	2186.441162109375	72.60122680664075	55.11930084228556	1608.058227539062	691.3591308593751	388.8241882324222	1641.213012695312	621.6801757812501	404.0647583007815	1599.805541992188	630.8967285156251	378.5417175292972	1466.68017578125	373.3358154296876	364.712585449219	1465.271728515625	294.8475646972657	360.3290710449222	1429.44482421875	326.407928466797	346.7615661621097	1310.050415039062	147.9876251220704	232.0341949462893	1485.721313476562	43.56092834472665	230.504318237305	1439.336547851562	41.33491134643563	337.714294433594	1850.556762695312	1300.02099609375	211.32682800293	1863.611938476562	1157.447387695313	220.9515228271488	1759.946411132812	1359.807495117188	30.83733558654817	1718.222778320312	1205.6279296875	-65.26912689208953	1690.402709960938	1147.019165039062	-79.03482818603484	1740.27734375	1143.259033203125	-66.10946655273406	1672.127563476562	950.1407470703126	-109.7421646118161	1619.994506835938	894.8079223632814	-86.39621734619111	1661.859375	889.5410766601564	-113.0110778808591	1652.936889648438	786.1785278320314	-123.5897827148435	1707.693359375	769.4768676757814	-68.42874145507781	1755.81298828125	1368.414794921875	372.7446899414066	1753.908081054688	1227.588989257812	478.8192138671878	1789.050537109375	1172.392456054688	489.9232788085941	1739.528076171875	1168.189331054688	503.4908142089847	1865.087158203125	976.1919555664064	530.2888183593753	1944.3388671875	973.7486572265626	536.7534790039066	1913.680297851562	938.2353515625001	519.8987426757816	1996.500244140625	902.7167968750001	509.2336425781253	2021.6865234375	930.1712646484376	436.7981262207035	
336	1.675	1939.930541992188	1531.530151367188	211.2323760986332	1895.433837890625	1572.905395507813	272.5181579589847	1905.53125	1559.865356445313	134.8273773193363	1692.492553710938	1406.109375	199.4116821289066	1630.093872070312	1237.046142578125	197.8255615234378	1623.922729492188	1196.262451171875	177.3464050292972	1614.845336914062	1189.67529296875	226.576095581055	1627.173950195312	1132.470092773438	194.9719238281253	1652.6376953125	1065.357421875	198.0729827880863	1618.20947265625	1030.371826171875	176.1084289550784	1612.68212890625	1030.077026367188	226.2425231933597	1610.066772460938	968.8381347656251	198.7041931152347	1632.248168945312	926.1970214843751	171.6574554443363	1623.57080078125	927.8637695312501	222.3893737792972	1607.075927734375	869.3091430664064	196.0885925292972	1834.957397460938	636.1876220703126	36.50719833374057	1811.204345703125	566.1275024414064	63.66195297241244	1857.722778320312	581.9432983398439	52.48630905151401	1958.708374023438	303.4671936035157	58.10755538940466	1941.779418945312	227.5767974853517	75.67704010009801	1986.34228515625	248.1991577148439	66.01387023925818	2013.177978515625	49.31106948852551	156.0898742675785	2222.4853515625	112.007164001465	147.1866149902348	2188.687255859375	68.4709396362306	55.85710144043009	1615.818603515625	690.9612426757814	388.3310546875003	1648.864013671875	621.3607177734376	403.9655761718753	1607.61376953125	630.5236206054689	378.1623229980472	1472.870727539062	374.613983154297	365.2046813964847	1470.384155273438	296.1360473632814	360.7782287597659	1435.027221679688	328.2138977050782	347.1480407714847	1313.51416015625	151.9367218017579	232.7666931152346	1485.717163085938	43.35925292968759	230.480895996094	1440.14990234375	41.44836425781259	337.876403808594	1858.322875976562	1299.656494140625	210.2539367675785	1871.615478515625	1157.167602539063	220.0552215576175	1767.83203125	1359.06591796875	29.5883426666263	1726.286010742188	1204.677001953125	-66.26325225830047	1698.50634765625	1146.0322265625	-79.97635650634734	1748.364379882812	1142.315185546875	-66.98760986328092	1680.4384765625	949.0211181640626	-110.3224105834958	1628.271728515625	893.7250976562501	-86.98153686523408	1670.20751953125	888.4112548828126	-113.4775466918942	1661.37939453125	785.0373535156251	-123.8498611450192	1715.965209960938	768.5194091796876	-68.49925231933562	1763.357666015625	1368.049682617188	371.5052490234378	1761.0537109375	1227.1474609375	477.5120544433597	1795.926025390625	1171.72314453125	488.6095581054691	1746.393432617188	1167.786743164062	502.1581726074222	1870.8857421875	975.0653076171876	529.1188354492191	1950.10546875	972.2241210937501	536.0007324218753	1919.322875976562	936.8568115234376	518.9479980468753	2002.033935546875	900.9464111328126	508.6430969238285	2027.657104492188	928.3051147460939	436.3285827636723	
337	1.68	1947.4140625	1531.340576171875	210.3066406250004	1902.762329101562	1572.674560546875	271.5051269531253	1913.12646484375	1559.643432617188	133.8435211181644	1700.093505859375	1405.631591796875	197.9998168945316	1637.927856445312	1236.482543945312	196.6388854980472	1631.815795898438	1195.66552734375	176.2329711914066	1622.746826171875	1189.139404296875	225.4788513183597	1635.132690429688	1131.911010742188	193.9475097656253	1660.74267578125	1064.850708007812	197.18522644043	1626.538452148438	1029.77490234375	175.3723602294925	1621.012329101562	1029.438354492188	225.5030670166018	1618.519653320312	968.2249755859376	197.9483032226565	1640.306518554688	925.6247558593751	170.9732971191409	1631.6953125	927.1832275390626	221.7093658447269	1615.561279296875	868.5521850585939	195.3590393066409	1843.578002929688	636.4224243164064	36.16660690307651	1819.502197265625	566.1961059570314	62.66362762451205	1866.14306640625	582.0908203125001	52.01834106445347	1965.203491210938	303.0715332031251	57.96087646484411	1947.290405273438	227.4024200439454	75.3225936889652	1992.120361328125	247.4854278564454	66.03990173339881	2015.12060546875	49.31164550781262	156.4397277832035	2225.65185546875	106.7512130737306	147.8831634521488	2190.782470703125	64.32910919189466	56.55160522460978	1623.728393554688	690.5555419921876	387.8001708984378	1656.69580078125	621.0445556640626	403.878356933594	1615.615356445312	630.1314086914064	377.7635192871097	1479.33203125	375.9342041015626	365.7386779785159	1475.74560546875	297.4775390625001	361.3089904785159	1440.891479492188	330.0743103027345	347.561950683594	1317.345703125	156.0481109619141	233.5266265869143	1485.759643554688	43.17187118530283	230.4553985595706	1441.00732421875	41.60129547119149	338.030700683594	1866.097045898438	1299.392700195313	209.15983581543	1879.65869140625	1156.997680664063	219.1328735351566	1775.726196289062	1358.397583007812	28.31215667724642	1734.396606445312	1203.78662109375	-67.28041076660125	1706.669311523438	1145.10302734375	-80.94659423828094	1756.510864257812	1141.43798828125	-67.88547515869108	1688.866455078125	947.9393310546876	-110.9190750122067	1636.675659179688	892.6658935546876	-87.58982849121064	1678.691162109375	887.3146972656251	-113.9555740356442	1669.9931640625	783.9253540039064	-124.1062164306637	1724.390869140625	767.6187744140626	-68.55060577392547	1770.896362304688	1367.75439453125	370.2463684082035	1768.198120117188	1226.769409179688	476.1840209960941	1802.79052734375	1171.117919921875	487.2747192382816	1753.24951171875	1167.457885742188	500.8189697265628	1876.5966796875	973.9641113281251	527.9472656250003	1955.77978515625	970.6853027343751	535.2578735351566	1924.85498046875	935.4759521484376	518.0136108398441	2007.433349609375	899.1229248046876	508.0909423828128	2033.504638671875	926.3297729492189	435.8855285644535	
